<?xml version="1.0" encoding="utf-8"?>
<!-- Generator: Adobe Illustrator 18.1.0, SVG Export Plug-In . SVG Version: 6.00 Build 0)  -->
<svg version="1.1" id="Ebene_1" xmlns="http://www.w3.org/2000/svg" xmlns:xlink="http://www.w3.org/1999/xlink" x="0px" y="0px"
	 viewBox="0 0 701.9 317.3" enable-background="new 0 0 701.9 317.3" xml:space="preserve">
<g>
	<path fill-rule="evenodd" clip-rule="evenodd" fill="#CB181A" d="M391.6,112.5c-14.2,0-10.1-18.8-8.8-27.6c-5,0-10.1,5.4-13.8,8
		c-9.7,7.5-15.2,18.9-22.6,16.8c-5.4-5.4,11.9-28,23-41.9c3.8-7.5,7.5-14.7,11.3-21.8c6.3-10.5,20.1-26.8,20.1-39.8
		c-1.3-0.4-2.5-0.4-3.4-0.4c-19.3,4.6-34.5,16.8-52.1,25.6c-0.4,0.4-3.6,1.6-4,2.5c-14.7,5.9-28.9,11.7-43.1,17.6c0-2.5,0-5,0-7.1
		c4.2-4.2,10.1-1.6,17.9-6.2c16.4-5.5,32.6-13.8,57.5-29.3c9.6-3.8,24.3-13,34.3-6.3c0.4,2.1,3.2,3,2.1,7.1
		c-5.4,15.1-13.4,28.9-21.8,42.3c-4.8,6.6-23.9,34.7-22.2,36.4c7.5-4.6,14.6-12.7,23.4-6.8c2.1,3.8,0.5,14.9,0.1,22.9
		c1.1,4.5,2.5,2.4,3.8,3.6c15.1,0,32.7-18.4,41.9-28.9c3.8-8,7.5-42.7,22.6-35.2c0.8,1.2,1.4,3,0.4,5.9c-4.2,4.2-8.8,18.4-10.5,22.6
		c-7,10.7-16.3,18.8-25.1,27.6C410.2,109.3,399.3,112.2,391.6,112.5L391.6,112.5z"/>
	<path fill-rule="evenodd" clip-rule="evenodd" fill="#CB181A" d="M35.2,244c-10.4-0.7-16.2-1-26.8-4.2c-4.1-2-5.5-4.6-6.7-5.9
		c-0.8-1.3-1.5-1.7-1.7-3.9c0.4-5.6,5-12,11.3-16.1c5-2.5,10.1-5.6,15.5-7.7c14.3-6.3,28.3-10.1,42.1-14.7c0-0.4,2.3-0.3,2.3-0.7
		c76.4-19.7,110.6-28.1,228.7-38.1c26-0.8,49.1-2.1,75.4-2.5c2.1-0.4,7.1-0.5,9.6-0.5c32.2-0.4,64.9-0.4,97.6-0.4
		c8.4-4.2,18.8-9.9,26-16.2c2.6-2.5,5-4.1,5.4-8.5c0.8-4.2,1.7-8,2.9-11.7c-5.9,0.8-11.3,1.7-16.8,2.9c-3.4-0.4-6.7-0.8-10.1-0.8
		c-3.8-2.1-7.1-4.2-10.5-6.3c-4.2,2.1-8,4.2-11.7,6.3c-9.3,1.4-10.7,0.9-15.9-1.7c-10.1-12.6,3.5-30.6,16.8-33.9
		c14.2,0,13.9,6.9,13.5,19.9c2.9-0.4,5.6-1.4,9-1.4c1.1,4,1.3,7.8,1,12.1c6.7,2.1,14.3,0.9,20.6-2c0-0.4,8.9-3.1,15-21
		c1.7-3.8,3.8-7.1,5.9-10.5c1.3,0,4-8.8,13.8-8.4c8.4,6.7,0.8,19.7-3.8,26.4c-2.1,2.1-4.9,2.8-6.6,4.9
		c-10.1,5.8-14.3,21.1-17.7,27.8c1.3-0.4,2.5-0.8,4.2-0.8c3.9-2.3,26.6-13.9,31.8-18.3c3.8-2.1,5.9-4.3,9.7-6.4
		c3.3-5.2,11-6.1,14.8-5.7c2.8,1.2,2.7,4.7,3.6,7.3c8,1.3,8.2,3.3,11.2,10c0.8,4.7,3.9,6.3,4,6.5c2.1,0.4,3.2,0.6,6.7,0.9
		c6.6-0.6,8-2.5,12.1-3.8c0-0.4,4-2.2,4-2.6c2.5-1.3,3.2-1.6,5-3.8c0-0.8,1.5-1.7,1.5-2.1c1.3-1.3,0.8-1.1,1.7-3.5
		c-2.5-8.4-1.5-12.6,2.3-21c1.4-1.9,2.1-3.1,3.4-4.8c1.7-1.3,3.1-2.4,5.2-3.3c5.5-1.9,10.3,0.5,12.2,1.2c2.2,3.7,0.8,7.3-0.5,10.6
		c-0.4,0-1.3,3.1-1.7,3.1c-0.4,2.9-5.8,8.7-7.1,11.6c2.5,2.5,24.7,4.6,31,4.6c3.8-4.2,7.5-7.8,9.6-12.4c0.8-1.2,2-2.6,4.1-2.9
		c3.2-1.1,4.6-1.5,8.8,0c5,5,3.3,15.6,3.3,22.3c-0.8,3.3-1,8.3-3.7,12.2c-0.1,0.3-0.6,2.5-0.6,2.4c-4.9,5.9-4.9,7.9-9.8,10.5
		c-10.1,3.8-19.7,8-29.3,12.1c0,0.4,0,0.8,0,1.3c7.5,1.3,26.4,3.1,29.7,10.2c0,12.1-11.3,11.2-20.5,10.3c-2.1-4.6,6.3-4.2,9.2-5
		c0-5.9-27-8.8-30.8-8.8c-9.6,3.8-24.8,10.3-34.4,14c-2.5,0-3.7,1.5-8.7,0.2c2.8-4.3,11.7-4.1,18.1-7.9c2.5-2.1,14.8-5.7,17.7-7.4
		c0-0.8-4.1-0.3-4.1-0.7c-49.4-1.3-79.9-5.3-128.9-0.3c-10.1,8.4-18.3,24.7-26.5,33.3c-2.4,3.1-7.2,6.6-10,9.3
		c35.2-3.4,42.4-10.9,77.6-15.1c4.4-1.7,7.9-1.3,12.6-2.5c11.3-3.8,23.9-5.8,35.6-7.9c1.3,0.7,0.8,2,0.6,2.7
		c-52.5,16.9-78.5,19-130.8,27.8c-1.7,1.2-3.2,3-5.1,4c-10.1,6.3-38.5,28.1-49.4,17.2c-1.3-4.2-2.6-6.9-0.4-12.6
		c-28.1,2.1-57,5-85,8.8c-73,7.4-129.3,11.7-193.5,17.6C98,240.7,66.6,242.3,35.2,244L35.2,244z M688.8,125.9
		c0.6-0.7,1.1-1.9,1.3-2.8c0.3-1.2,1-3,1.2-4.2c0.6-4,3.8-18.9-2.5-18.9c-1.7,0.5-1.6,0.3-3.4,3.8c-4.6,6.7-4.6,11.3-6.3,18.8
		c-2.5,2.5-8,1.7-11.3,1.3c0.8-4.2,1.3-8,0-12.1c-10.1-3.8-22-7.1-31.7-4.5c-2.3,2.4-2.8,4.3-4.7,5.2c-2.1,2.6-15.9,10.2-18,11
		c-8.8,1.7-17.2,0-25.5-2.5c-5.4-5.9-5.4-8.1-10.7-3.5c-5,0-6.9,0.6-8.1-4.1c0.4-2.5,1.3-5,2.1-7.1c-11.7,2.9-23,11.7-33.1,18
		c-5,2.1-10.1,4.6-15.1,7.1c-5.3,2.2-12.4,6.9-14.7,17.6c51.5,0,82.2-0.5,133.7,1.5c13-2.1,26.8-9.6,38.5-15.9
		C688.5,129.4,684.5,131.3,688.8,125.9L688.8,125.9z M35.2,238.2C25.3,238.5,0.1,235.6,6,226c5.7-7.8,8.9-10.2,26.9-16.3
		c7.5-3.4,17.8-5.9,25.7-8.8c4.9-1.3,24.3-7.1,43.6-12.1c3.7-0.7,13-2.5,26.4-5.4c19.7-4.2,37.4-8.6,61.2-11.7
		c61.3-8.3,120.1-13.9,181.3-15.5c33.1,0,66.6,0,100.1,0c1.1,1.1,0,1.2-1.3,2.5c-8,2.9-14.7,9.6-22.2,14.2c-2.1,1.7-5.4,3.7-7.5,5.9
		c-10.3,7.7-16.8,15.5-17.2,15.5c-4.6,4.6-8.8,9.2-13,14.2c-86.7,8-173.4,16.3-259.7,24.7C111.9,234.8,73.3,236.5,35.2,238.2
		L35.2,238.2z M414.2,224c-2.9-5.5,0.1-12.4,2-13.2c10.1-1.3,24.4-2.8,34.9-3.6c-5.9,3.8-11.7,7.5-17.6,11.3
		C427.6,222.4,418.7,226.7,414.2,224L414.2,224z M418.5,205.9c12.2-17,30.7-30.3,51.4-42.3c2.2-1.3,5.4-3.6,10.5-6.3
		c6.2-4.4,20-4.4,11.6,6.6c-6.5,12.6-23.6,30.2-35.5,37.4C444.8,202.6,429.8,204.2,418.5,205.9L418.5,205.9z M503.2,143.8
		c-2,3.9-4,4.4-7.9,4.4C498.2,146.3,500.2,145.7,503.2,143.8L503.2,143.8z M458.2,110c-5-5,7.1-28.1,15.1-24.3
		c0.4,1.3,0.8,2.5,1.7,3.8c0,5-2.6,12.6-5.2,16.8c-1.7,0.8-3.2,2.4-5.8,3C461.3,110.4,460.3,110.3,458.2,110L458.2,110z M638.7,88.4
		c1.8-3.2,3.3-4.6,4.3-5.2c0.8-0.4,1.6-1.2,2.8-1.2c1.7,2.3-2.4,5-3.5,7.1c-0.5,0.6-2.5,3.1-3.6,3.2
		C636.6,90.8,637.4,90.8,638.7,88.4L638.7,88.4z M535.1,91.1c1.7-3.4,4.7-9,6.7-12.4C543.4,82.4,540,90.2,535.1,91.1L535.1,91.1z"/>
	<path fill="#464645" d="M238.9,287.1v4.6c-1.9-1.4-3.9-2.4-6.1-3c-2.2-0.7-4.5-1-6.9-1c-4.8,0-8.5,1.1-11,3.4
		c-2.5,2.2-3.8,5.5-3.8,9.7c0,4.2,1.3,7.4,3.8,9.7c2.5,2.2,6.2,3.4,11,3.4c2.4,0,4.7-0.3,6.9-1c2.2-0.7,4.2-1.7,6.1-3v4.5
		c-2,1-4.1,1.8-6.3,2.3c-2.2,0.5-4.6,0.8-7,0.8c-6.3,0-11.3-1.5-15-4.4c-3.6-3-5.5-7-5.5-12.1c0-5.1,1.8-9.2,5.5-12.2
		c3.6-3,8.6-4.4,15-4.4c2.5,0,4.9,0.3,7.1,0.8C234.9,285.4,236.9,286.1,238.9,287.1L238.9,287.1z"/>
	<path fill="#464645" d="M261.6,288.9l-7.7,15.9h15.4L261.6,288.9L261.6,288.9z M258.4,284.7h6.4l16,32h-5.9l-3.8-8.2h-18.9
		l-3.8,8.2h-6L258.4,284.7L258.4,284.7z"/>
	<polygon fill="#464645" points="286.9,284.7 311,284.7 311,288.3 292.6,288.3 292.6,297.7 309.2,297.7 309.2,301.4 292.6,301.4 
		292.6,316.7 286.9,316.7 286.9,284.7 	"/>
	<path fill="#464645" d="M320,284.7h26.5v3.6h-20.8v9.5h19.9v3.6h-19.9V313H347v3.6h-27V284.7L320,284.7z M334.7,276h5.2l-6.4,5.7
		h-4.3L334.7,276L334.7,276z"/>
	<path fill="#464645" d="M382.9,299.5c-1.7,1.2-2.9,2.3-3.7,3.5c-0.8,1.1-1.2,2.4-1.2,3.6c0,2.1,1,3.8,3,5.2c2,1.4,4.5,2.1,7.5,2.1
		c1.8,0,3.4-0.2,5-0.7c1.6-0.5,3-1.1,4.4-2L382.9,299.5L382.9,299.5z M386.8,297.1l14.2,11.1c1.1-1.3,2-2.6,2.6-4.1
		c0.6-1.4,1-3,1.1-4.6h5.2c-0.2,1.9-0.8,3.8-1.8,5.6c-1,1.8-2.3,3.7-4.1,5.5l7.8,6.1h-7.1l-4-3.2c-1.9,1.3-4,2.2-6.1,2.8
		c-2.1,0.6-4.4,0.9-6.9,0.9c-4.5,0-8.2-1-11-2.9c-2.9-2-4.3-4.5-4.3-7.6c0-1.8,0.6-3.5,1.9-5.2c1.3-1.6,3.1-3.1,5.6-4.5
		c-0.9-0.9-1.6-1.8-2-2.7s-0.7-1.8-0.7-2.6c0-2.3,1-4.2,3.1-5.6c2.1-1.4,4.8-2.1,8.3-2.1c1.6,0,3.1,0.1,4.6,0.4
		c1.5,0.3,3.1,0.6,4.7,1.2v3.9c-1.6-0.7-3.2-1.2-4.7-1.5c-1.5-0.4-2.9-0.5-4.1-0.5c-2,0-3.6,0.4-4.8,1.2c-1.2,0.8-1.8,1.8-1.8,3.1
		c0,0.7,0.3,1.5,0.8,2.2C384,294.7,385.1,295.7,386.8,297.1L386.8,297.1z"/>
	<polygon fill="#464645" points="433.8,284.7 439.6,284.7 448.4,311.7 457.2,284.7 463.5,284.7 472.3,311.7 481.1,284.7 
		486.9,284.7 476.3,316.7 469.2,316.7 460.4,288.9 451.5,316.7 444.3,316.7 433.8,284.7 	"/>
	<polygon fill="#464645" points="494.4,284.7 520.8,284.7 520.8,288.3 500,288.3 500,297.8 520,297.8 520,301.4 500,301.4 500,313 
		521.4,313 521.4,316.7 494.4,316.7 494.4,284.7 	"/>
	<polygon fill="#464645" points="530.7,284.7 536.3,284.7 536.3,316.7 530.7,316.7 530.7,284.7 	"/>
	<polygon fill="#464645" points="547.6,284.7 555.2,284.7 573.8,311.4 573.8,284.7 579.3,284.7 579.3,316.7 571.7,316.7 
		553.1,289.9 553.1,316.7 547.6,316.7 547.6,284.7 	"/>
	<path fill="#464645" d="M596.2,301.4v11.7h9.1c3.1,0,5.3-0.5,6.8-1.4c1.5-1,2.2-2.4,2.2-4.4c0-2-0.7-3.5-2.2-4.4
		c-1.5-1-3.7-1.4-6.8-1.4H596.2L596.2,301.4z M596.2,288.2v9.7h8.4c2.8,0,4.8-0.4,6.2-1.2c1.4-0.8,2-2,2-3.6c0-1.6-0.7-2.8-2-3.6
		c-1.4-0.8-3.4-1.2-6.2-1.2H596.2L596.2,288.2z M590.6,284.7h14.5c4.3,0,7.6,0.7,10,2.1c2.3,1.4,3.5,3.3,3.5,5.9
		c0,2-0.6,3.5-1.8,4.7c-1.2,1.2-2.9,1.9-5.3,2.2c2.8,0.5,5,1.4,6.5,2.9c1.5,1.4,2.3,3.3,2.3,5.4c0,2.9-1.3,5.1-3.8,6.6
		c-2.5,1.6-6.2,2.3-10.9,2.3h-15V284.7L590.6,284.7z"/>
	<path fill="#464645" d="M644,288.9l-7.7,15.9h15.4L644,288.9L644,288.9z M640.8,284.7h6.4l16,32h-5.9l-3.8-8.2h-18.9l-3.8,8.2h-6
		L640.8,284.7L640.8,284.7z"/>
	<path fill="#464645" d="M689.1,301.7c1.2,0.3,2.4,1,3.6,2c1.1,1,2.3,2.4,3.5,4.2l5.8,8.8h-6.1l-5.4-8.2c-1.4-2.1-2.7-3.6-4-4.3
		c-1.3-0.7-3.1-1.1-5.3-1.1H675v13.5h-5.7v-32h12.8c4.8,0,8.4,0.8,10.7,2.3c2.4,1.5,3.5,3.8,3.5,6.9c0,2-0.6,3.7-1.8,5
		C693.3,300.2,691.5,301.1,689.1,301.7L689.1,301.7z M675,288.2v11.4h7.1c2.7,0,4.8-0.5,6.2-1.4c1.4-1,2.1-2.4,2.1-4.3
		c0-1.9-0.7-3.3-2.1-4.2c-1.4-1-3.5-1.4-6.2-1.4H675L675,288.2z"/>
</g>
</svg>
